<mxfile host="app.diagrams.net" agent="Mozilla/5.0 (Windows NT 10.0; Win64; x64) AppleWebKit/537.36 (KHTML, like Gecko) Chrome/128.0.0.0 Safari/537.36" version="24.7.12">
  <diagram name="Page-1" id="m40n8pm2fc7japglgTBe">
    <mxGraphModel dx="1662" dy="616" grid="0" gridSize="10" guides="1" tooltips="1" connect="1" arrows="1" fold="1" page="0" pageScale="1" pageWidth="850" pageHeight="1100" math="0" shadow="0">
      <root>
        <mxCell id="0" />
        <mxCell id="1" parent="0" />
        <mxCell id="nqCIsX4LDL96y5m1TIFh-12" style="edgeStyle=none;curved=1;rounded=0;orthogonalLoop=1;jettySize=auto;html=1;fontSize=12;startSize=8;endSize=8;strokeWidth=2;dashed=1;dashPattern=8 8;fillColor=#ffe6cc;strokeColor=#E68D09;" parent="1" edge="1">
          <mxGeometry relative="1" as="geometry">
            <mxPoint x="-22.5" y="296" as="sourcePoint" />
            <mxPoint x="176.5" y="296" as="targetPoint" />
            <Array as="points">
              <mxPoint x="78.5" y="296" />
            </Array>
          </mxGeometry>
        </mxCell>
        <mxCell id="nqCIsX4LDL96y5m1TIFh-1" value="&lt;font style=&quot;font-size: 20px;&quot;&gt;Client 1&lt;/font&gt;" style="rounded=0;whiteSpace=wrap;html=1;fillColor=#ffe6cc;strokeColor=#d79b00;strokeWidth=4;" parent="1" vertex="1">
          <mxGeometry x="-185" y="263" width="160" height="169" as="geometry" />
        </mxCell>
        <mxCell id="nqCIsX4LDL96y5m1TIFh-5" style="edgeStyle=none;curved=1;rounded=0;orthogonalLoop=1;jettySize=auto;html=1;entryX=1;entryY=0;entryDx=0;entryDy=0;fontSize=12;startSize=8;endSize=8;exitX=0.5;exitY=1;exitDx=0;exitDy=0;strokeWidth=2;dashed=1;dashPattern=8 8;strokeColor=#009900;" parent="1" source="nqCIsX4LDL96y5m1TIFh-3" target="nqCIsX4LDL96y5m1TIFh-1" edge="1">
          <mxGeometry relative="1" as="geometry" />
        </mxCell>
        <mxCell id="nqCIsX4LDL96y5m1TIFh-6" style="edgeStyle=none;curved=1;rounded=0;orthogonalLoop=1;jettySize=auto;html=1;entryX=0;entryY=0;entryDx=0;entryDy=0;fontSize=12;startSize=8;endSize=8;exitX=0.5;exitY=1;exitDx=0;exitDy=0;strokeWidth=2;dashed=1;dashPattern=8 8;strokeColor=#009900;" parent="1" source="nqCIsX4LDL96y5m1TIFh-3" target="nqCIsX4LDL96y5m1TIFh-4" edge="1">
          <mxGeometry relative="1" as="geometry" />
        </mxCell>
        <mxCell id="nqCIsX4LDL96y5m1TIFh-3" value="&lt;font style=&quot;font-size: 20px;&quot;&gt;Server&lt;/font&gt;" style="rounded=0;whiteSpace=wrap;html=1;fillColor=#dae8fc;strokeColor=#6c8ebf;strokeWidth=4;" parent="1" vertex="1">
          <mxGeometry x="-3" y="106" width="160" height="80" as="geometry" />
        </mxCell>
        <mxCell id="nqCIsX4LDL96y5m1TIFh-10" style="edgeStyle=none;curved=1;rounded=0;orthogonalLoop=1;jettySize=auto;html=1;fontSize=12;startSize=8;endSize=8;strokeColor=#009900;strokeWidth=2;fillColor=#d5e8d4;" parent="1" edge="1">
          <mxGeometry relative="1" as="geometry">
            <mxPoint x="242.45" y="263" as="sourcePoint" />
            <mxPoint x="154.00172413793092" y="187" as="targetPoint" />
          </mxGeometry>
        </mxCell>
        <mxCell id="nqCIsX4LDL96y5m1TIFh-15" style="edgeStyle=none;curved=1;rounded=0;orthogonalLoop=1;jettySize=auto;html=1;entryX=1;entryY=0.5;entryDx=0;entryDy=0;fontSize=12;startSize=8;endSize=8;dashed=1;dashPattern=8 8;strokeWidth=2;strokeColor=#E68D09;" parent="1" edge="1">
          <mxGeometry relative="1" as="geometry">
            <mxPoint x="176.5" y="313" as="sourcePoint" />
            <mxPoint x="-22.5" y="313" as="targetPoint" />
          </mxGeometry>
        </mxCell>
        <mxCell id="nqCIsX4LDL96y5m1TIFh-4" value="&lt;font style=&quot;font-size: 20px;&quot;&gt;Client 2&lt;/font&gt;" style="rounded=0;whiteSpace=wrap;html=1;fillColor=#ffe6cc;strokeColor=#d79b00;strokeWidth=4;" parent="1" vertex="1">
          <mxGeometry x="174" y="263" width="160" height="169" as="geometry" />
        </mxCell>
        <mxCell id="nqCIsX4LDL96y5m1TIFh-7" value="Ticket info" style="text;html=1;align=center;verticalAlign=middle;resizable=0;points=[];autosize=1;strokeColor=none;fillColor=none;fontSize=16;rotation=323;" parent="1" vertex="1">
          <mxGeometry x="-35" y="204" width="90" height="31" as="geometry" />
        </mxCell>
        <mxCell id="nqCIsX4LDL96y5m1TIFh-8" style="edgeStyle=none;curved=1;rounded=0;orthogonalLoop=1;jettySize=auto;html=1;entryX=0.296;entryY=0.978;entryDx=0;entryDy=0;entryPerimeter=0;fontSize=12;startSize=8;endSize=8;fontColor=#000000;strokeColor=#009900;strokeWidth=2;" parent="1" edge="1">
          <mxGeometry relative="1" as="geometry">
            <mxPoint x="-97.00349949477942" y="264.76" as="sourcePoint" />
            <mxPoint x="2.0499999999998977" y="186" as="targetPoint" />
          </mxGeometry>
        </mxCell>
        <mxCell id="nqCIsX4LDL96y5m1TIFh-9" value="Buy request" style="text;html=1;align=center;verticalAlign=middle;resizable=0;points=[];autosize=1;strokeColor=none;fillColor=none;fontSize=16;rotation=-40;fontColor=#000000;" parent="1" vertex="1">
          <mxGeometry x="-113" y="200" width="103" height="31" as="geometry" />
        </mxCell>
        <mxCell id="nqCIsX4LDL96y5m1TIFh-11" value="Buy request" style="text;html=1;align=center;verticalAlign=middle;resizable=0;points=[];autosize=1;strokeColor=none;fillColor=none;fontSize=16;rotation=40;fontColor=#000000;" parent="1" vertex="1">
          <mxGeometry x="164" y="204" width="103" height="31" as="geometry" />
        </mxCell>
        <mxCell id="nqCIsX4LDL96y5m1TIFh-13" value="&lt;font color=&quot;#e68d09&quot;&gt;Scalping request&lt;/font&gt;" style="text;html=1;align=center;verticalAlign=middle;resizable=0;points=[];autosize=1;strokeColor=none;fillColor=none;fontSize=16;" parent="1" vertex="1">
          <mxGeometry x="0.56" y="267" width="137" height="31" as="geometry" />
        </mxCell>
        <mxCell id="nqCIsX4LDL96y5m1TIFh-21" value="" style="group" parent="1" vertex="1" connectable="0">
          <mxGeometry x="-27.119999999999997" y="453" width="201.12135922330097" height="152" as="geometry" />
        </mxCell>
        <mxCell id="nqCIsX4LDL96y5m1TIFh-25" value="" style="group" parent="nqCIsX4LDL96y5m1TIFh-21" vertex="1" connectable="0">
          <mxGeometry width="201.12135922330097" height="152" as="geometry" />
        </mxCell>
        <mxCell id="nqCIsX4LDL96y5m1TIFh-16" value="&lt;blockquote style=&quot;margin: 0 0 0 40px; border: none; padding: 0px;&quot;&gt;&lt;br&gt;&lt;/blockquote&gt;" style="rounded=0;whiteSpace=wrap;html=1;align=left;" parent="nqCIsX4LDL96y5m1TIFh-25" vertex="1">
          <mxGeometry width="201" height="152" as="geometry" />
        </mxCell>
        <mxCell id="nqCIsX4LDL96y5m1TIFh-17" style="edgeStyle=none;curved=1;rounded=0;orthogonalLoop=1;jettySize=auto;html=1;fontSize=12;startSize=8;endSize=8;strokeColor=#009900;strokeWidth=2;endArrow=none;endFill=0;dashed=1;" parent="nqCIsX4LDL96y5m1TIFh-25" edge="1">
          <mxGeometry relative="1" as="geometry">
            <mxPoint x="38.94174757281554" y="24.326923076923077" as="sourcePoint" />
            <mxPoint x="12.980582524271846" y="24.326923076923077" as="targetPoint" />
          </mxGeometry>
        </mxCell>
        <mxCell id="nqCIsX4LDL96y5m1TIFh-20" style="edgeStyle=none;curved=1;rounded=0;orthogonalLoop=1;jettySize=auto;html=1;fontSize=12;startSize=8;endSize=8;strokeColor=#E68D09;strokeWidth=2;endArrow=none;endFill=0;dashed=1;" parent="nqCIsX4LDL96y5m1TIFh-25" edge="1">
          <mxGeometry relative="1" as="geometry">
            <mxPoint x="38.94174757281554" y="39.80769230769231" as="sourcePoint" />
            <mxPoint x="12.053398058252428" y="39.80769230769231" as="targetPoint" />
          </mxGeometry>
        </mxCell>
        <mxCell id="nqCIsX4LDL96y5m1TIFh-22" style="edgeStyle=none;curved=1;rounded=0;orthogonalLoop=1;jettySize=auto;html=1;fontSize=12;startSize=8;endSize=8;exitX=0.5;exitY=1;exitDx=0;exitDy=0;strokeWidth=2;endArrow=none;endFill=0;strokeColor=#009900;" parent="nqCIsX4LDL96y5m1TIFh-25" edge="1">
          <mxGeometry relative="1" as="geometry">
            <mxPoint x="38.94174757281554" y="106.71000000000001" as="sourcePoint" />
            <mxPoint x="12.053398058252428" y="106.71000000000001" as="targetPoint" />
          </mxGeometry>
        </mxCell>
        <mxCell id="nqCIsX4LDL96y5m1TIFh-24" value="Occurs &lt;br&gt;automatically &lt;br&gt;for n times." style="text;html=1;align=center;verticalAlign=middle;resizable=0;points=[];autosize=1;fontSize=16;strokeColor=none;" parent="nqCIsX4LDL96y5m1TIFh-25" vertex="1">
          <mxGeometry x="62.12135922330097" y="72.99846153846153" width="111" height="70" as="geometry" />
        </mxCell>
        <mxCell id="nqCIsX4LDL96y5m1TIFh-18" value="Occurs when a&lt;br&gt;&amp;nbsp;certain&amp;nbsp;&lt;span style=&quot;background-color: initial;&quot;&gt;condition &lt;br&gt;is met.&lt;/span&gt;" style="text;html=1;align=center;verticalAlign=middle;resizable=0;points=[];autosize=1;fontSize=16;strokeColor=none;" parent="nqCIsX4LDL96y5m1TIFh-25" vertex="1">
          <mxGeometry x="56.001359223300966" y="7.998461538461527" width="139" height="70" as="geometry" />
        </mxCell>
        <mxCell id="oOTAxdBSeaSTQrg-OE3V-3" value="Ticket info" style="text;html=1;align=center;verticalAlign=middle;resizable=0;points=[];autosize=1;strokeColor=none;fillColor=none;fontSize=16;rotation=37;flipV=0;flipH=0;" vertex="1" parent="1">
          <mxGeometry x="98" y="206" width="90" height="31" as="geometry" />
        </mxCell>
        <mxCell id="oOTAxdBSeaSTQrg-OE3V-6" value="&lt;font color=&quot;#e68d09&quot;&gt;Scalped ticket info&lt;/font&gt;" style="text;html=1;align=center;verticalAlign=middle;resizable=0;points=[];autosize=1;strokeColor=none;fillColor=none;fontSize=16;" vertex="1" parent="1">
          <mxGeometry x="-2.4399999999999995" y="309" width="148" height="31" as="geometry" />
        </mxCell>
        <mxCell id="oOTAxdBSeaSTQrg-OE3V-7" value="&lt;font color=&quot;#e68d09&quot;&gt;Scalping request&lt;/font&gt;" style="text;html=1;align=center;verticalAlign=middle;resizable=0;points=[];autosize=1;strokeColor=none;fillColor=none;fontSize=16;" vertex="1" parent="1">
          <mxGeometry x="3.06" y="351" width="137" height="31" as="geometry" />
        </mxCell>
        <mxCell id="oOTAxdBSeaSTQrg-OE3V-8" value="&lt;font color=&quot;#e68d09&quot;&gt;Scalped ticket info&lt;/font&gt;" style="text;html=1;align=center;verticalAlign=middle;resizable=0;points=[];autosize=1;strokeColor=none;fillColor=none;fontSize=16;" vertex="1" parent="1">
          <mxGeometry x="-2.4399999999999995" y="394" width="148" height="31" as="geometry" />
        </mxCell>
        <mxCell id="oOTAxdBSeaSTQrg-OE3V-9" style="edgeStyle=none;curved=1;rounded=0;orthogonalLoop=1;jettySize=auto;html=1;fontSize=12;startSize=8;endSize=8;strokeWidth=2;dashed=1;dashPattern=8 8;fillColor=#ffe6cc;strokeColor=#E68D09;" edge="1" parent="1">
          <mxGeometry relative="1" as="geometry">
            <mxPoint x="174" y="379" as="sourcePoint" />
            <mxPoint x="-25" y="379" as="targetPoint" />
            <Array as="points">
              <mxPoint x="73" y="379" />
            </Array>
          </mxGeometry>
        </mxCell>
        <mxCell id="oOTAxdBSeaSTQrg-OE3V-10" style="edgeStyle=none;curved=1;rounded=0;orthogonalLoop=1;jettySize=auto;html=1;entryX=1;entryY=0.5;entryDx=0;entryDy=0;fontSize=12;startSize=8;endSize=8;dashed=1;dashPattern=8 8;strokeWidth=2;strokeColor=#E68D09;" edge="1" parent="1">
          <mxGeometry relative="1" as="geometry">
            <mxPoint x="-25" y="396" as="sourcePoint" />
            <mxPoint x="174" y="396" as="targetPoint" />
          </mxGeometry>
        </mxCell>
      </root>
    </mxGraphModel>
  </diagram>
</mxfile>
